#!OML:ASF H:\Terrain\Patient Classification 1\Animal1\Tuesday\Animal1.ASF
:FULLY-SPECIFIED
:DEGREES
2903
root 12.9058 15.4197 -13.6065 29.4084 7.13372 -14.2799
lowerback 19.1523 0.733011 2.65667
upperback -4.85084 1.97564 1.91024
thorax -16.4465 0.757063 0.0411642
lowerneck -8.9652 11.8886 2.60891
upperneck 22.2137 16.3161 -1.41389
head 8.73981 7.70513 0.781996
rclavicle 3.18055e-015 -3.81667e-014
rhumerus -51.7236 13.1636 -95.6974
rradius 58.9155
rwrist -15.5299
rhand -30.7091 40.5947
rfingers 7.12502
rthumb -4.00221 10.6525
lclavicle 3.18055e-015 -3.81667e-014
lhumerus -46.9268 -12.4118 99.1967
lradius 60.1617
lwrist -48.9443
lhand -17.5321 39.8182
lfingers 7.12502
lthumb 8.72191 69.618
rfemur -54.7669 0.457415 37.4095
rtibia 42.18
rfoot -9.27713 -24.8951
rtoes -7.30249
lfemur -65.6112 -1.72799 8.50787
ltibia 54.9966
lfoot -20.8379 6.38785
ltoes -18.0709
2904
root 12.9029 15.4191 -13.5946 29.3975 7.44693 -14.3698
lowerback 19.1004 0.800718 2.79561
upperback -4.96343 2.09129 1.81757
thorax -16.5421 0.7864 -0.181289
lowerneck -9.30587 11.838 2.48526
upperneck 22.7956 16.1821 -0.893074
head 8.93939 7.66347 0.995146
rclavicle -2.38542e-015 -7.15625e-015
rhumerus -51.7403 12.9818 -95.7062
rradius 58.6411
rwrist -15.8132
rhand -30.1696 40.4104
rfingers 7.12502
rthumb -3.48121 10.4591
lclavicle -2.38542e-015 -7.15625e-015
lhumerus -46.995 -12.6907 99.2762
lradius 60.0873
lwrist -49.1272
lhand -17.5325 39.8406
lfingers 7.12502
lthumb 8.72145 69.6404
rfemur -54.7526 0.311663 37.6289
rtibia 42.2695
rfoot -9.48548 -24.8761
rtoes -6.51181
lfemur -65.7206 -1.8236 8.71655
ltibia 54.9737
lfoot -20.829 6.38051
ltoes -19.0056
2905
root 12.9011 15.4278 -13.5834 29.4282 7.66861 -14.1384
lowerback 18.9712 0.842033 2.59875
upperback -5.01265 2.06867 1.66252
thorax -16.5212 0.78525 -0.238784
lowerneck -8.98266 11.7396 3.08086
upperneck 22.6044 16.0772 -1.49053
head 8.92114 7.61152 0.683033
rclavicle -3.33958e-014 -9.54166e-015
rhumerus -51.7562 12.8921 -95.7954
rradius 58.3438
rwrist -15.993
rhand -29.7229 40.0694
rfingers 7.12502
rthumb -3.04986 10.1115
lclavicle -3.33958e-014 -9.54166e-015
lhumerus -47.0327 -12.8738 99.3187
lradius 60.1854
lwrist -49.2526
lhand -17.2053 39.9569
lfingers 7.12502
lthumb 9.03725 69.7433
rfemur -54.8423 0.0822783 37.4797
rtibia 42.3938
rfoot -9.98938 -24.8655
rtoes -4.05705
lfemur -65.7743 -2.09479 8.61424
ltibia 54.8668
lfoot -20.8606 6.35887
ltoes -19.4987
2906
root 12.8998 15.4325 -13.5756 29.5621 7.90035 -13.8246
lowerback 18.7615 0.825866 2.25838
upperback -5.03607 1.93588 1.55619
thorax -16.427 0.754154 -0.12144
lowerneck -9.03915 11.7091 3.31798
upperneck 22.6386 16.0677 -1.79199
head 8.99198 7.5924 0.55924
rclavicle 3.33958e-014 -2.54444e-014
rhumerus -51.6946 13.032 -95.8774
rradius 57.9755
rwrist -15.9555
rhand -29.7179 40.8224
rfingers 7.12502
rthumb -3.04504 10.8644
lclavicle 3.33958e-014 -2.54444e-014
lhumerus -46.8965 -12.7921 99.3057
lradius 60.2293
lwrist -49.3533
lhand -17.0067 40.0342
lfingers 7.12502
lthumb 9.22884 69.8122
rfemur -55.0744 -0.0739185 37.1834
rtibia 42.5416
rfoot -10.4897 -24.9799
rtoes -2.55826
lfemur -65.9439 -2.37191 8.45209
ltibia 54.7088
lfoot -20.8295 6.17827
ltoes -19.1729
2907
root 12.8975 15.4366 -13.5666 29.5407 8.18847 -13.7436
lowerback 18.7414 0.836387 2.12325
upperback -5.0412 1.90689 1.50232
thorax -16.4228 0.750992 -0.0970284
lowerneck -9.12608 11.6425 3.28125
upperneck 22.665 15.9671 -1.72169
head 9.00429 7.54777 0.582
rclavicle 0 -2.54444e-014
rhumerus -51.6077 13.2623 -95.8943
rradius 57.6668
rwrist -15.9088
rhand -30.1609 41.7611
rfingers 7.12502
rthumb -3.47286 11.8096
lclavicle 0 -2.54444e-014
lhumerus -46.8109 -12.7033 99.3392
lradius 60.2064
lwrist -49.4736
lhand -17.0977 39.9284
lfingers 7.12502
lthumb 9.1411 69.7102
rfemur -55.0626 -0.207059 37.163
rtibia 42.6381
rfoot -10.3358 -25.2017
rtoes -3.77652
lfemur -65.9844 -2.54142 8.47139
ltibia 54.5551
lfoot -20.7945 5.86911
ltoes -18.7536
2908
root 12.8923 15.4454 -13.5554 29.4041 8.37416 -13.662
lowerback 18.8612 0.945435 1.91839
upperback -5.00893 1.98811 1.39325
thorax -16.4583 0.799525 -0.134643
lowerneck -9.2412 11.5279 3.27445
upperneck 22.7688 15.7756 -1.55188
head 9.0398 7.47105 0.626528
rclavicle -3.02153e-014 -1.11319e-014
rhumerus -51.5405 13.2918 -95.921
rradius 57.5162
rwrist -16.0145
rhand -30.64 41.4604
rfingers 7.12502
rthumb -3.93552 11.517
lclavicle -3.02153e-014 -1.11319e-014
lhumerus -46.8013 -12.8287 99.3883
lradius 60.2881
lwrist -49.5446
lhand -17.1149 39.8946
lfingers 7.12502
lthumb 9.12451 69.6773
rfemur -54.8621 -0.330739 37.1311
rtibia 42.6539
rfoot -10.2106 -25.4139
rtoes -5.34446
lfemur -65.8279 -2.68082 8.40481
ltibia 54.421
lfoot -20.7663 5.86329
ltoes -19.2078
2909
root 12.8847 15.4452 -13.55 29.5178 8.58334 -13.5851
lowerback 18.7302 1.04185 1.72763
upperback -5.01056 2.05258 1.30609
thorax -16.3802 0.842593 -0.14512
lowerneck -9.38503 11.4508 3.09478
upperneck 22.8749 15.6543 -1.33256
head 9.06407 7.41793 0.721103
rclavicle -1.74931e-014 -9.54166e-015
rhumerus -51.4903 13.1495 -95.9217
rradius 57.4349
rwrist -16.1588
rhand -30.6425 40.7753
rfingers 7.12502
rthumb -3.93791 10.8319
lclavicle -1.74931e-014 -9.54166e-015
lhumerus -46.6668 -12.934 99.435
lradius 60.3989
lwrist -49.713
lhand -17.1296 40.1249
lfingers 7.12502
lthumb 9.1103 69.9081
rfemur -54.9593 -0.364981 37.0986
rtibia 42.6015
rfoot -10.3375 -25.4826
rtoes -5.51599
lfemur -65.9991 -2.72186 8.39672
ltibia 54.3325
lfoot -20.6356 5.92809
ltoes -20.0912
2910
root 12.8763 15.4398 -13.5491 29.6135 8.93232 -13.8012
lowerback 18.6074 1.10086 1.85729
upperback -5.02523 2.16369 1.31553
thorax -16.3162 0.881207 -0.241294
lowerneck -9.2644 11.3592 2.84178
upperneck 22.6783 15.5301 -1.19138
head 8.93624 7.36325 0.771447
rclavicle -1.03368e-014 2.22639e-014
rhumerus -51.5314 13.0739 -95.8812
rradius 57.4528
rwrist -16.3049
rhand -30.721 40.7182
rfingers 7.12502
rthumb -4.01368 10.7763
lclavicle -1.03368e-014 2.22639e-014
lhumerus -46.5606 -12.9721 99.4775
lradius 60.4527
lwrist -50.097
lhand -17.46 40.1436
lfingers 7.12502
lthumb 8.79147 69.9405
rfemur -55.0812 -0.343357 37.4046
rtibia 42.5563
rfoot -10.3097 -25.6159
rtoes -4.94565
lfemur -66.2671 -2.58643 8.69699
ltibia 54.2824
lfoot -20.5354 5.70186
ltoes -20.9678
2911
root 12.8685 15.4447 -13.549 29.4295 9.14038 -13.9487
lowerback 18.8577 1.22262 1.85253
upperback -4.93881 2.31741 1.22417
thorax -16.3596 0.942846 -0.398404
lowerneck -9.04164 11.2191 2.86682
upperneck 22.3099 15.3072 -1.16192
head 8.76329 7.27864 0.723484
rclavicle 2.38542e-014 1.11319e-014
rhumerus -51.5121 12.9077 -95.8961
rradius 57.566
rwrist -16.4196
rhand -31.0092 40.5983
rfingers 7.12502
rthumb -4.292 10.6618
lclavicle 2.38542e-014 1.11319e-014
lhumerus -46.4361 -13.2158 99.4364
lradius 60.5279
lwrist -50.3003
lhand -17.7246 40.0769
lfingers 7.12502
lthumb 8.53608 69.8844
rfemur -54.8938 -0.330829 37.5771
rtibia 42.5631
rfoot -10.4352 -25.854
rtoes -4.1497
lfemur -66.1684 -2.4885 8.79402
ltibia 54.2611
lfoot -20.5426 5.49936
ltoes -21.2838
